<?xml version="1.0" encoding="utf-8"?>
<!-- Generator: Adobe Illustrator 16.0.0, SVG Export Plug-In . SVG Version: 6.00 Build 0)  -->
<!DOCTYPE svg PUBLIC "-//W3C//DTD SVG 1.1//EN" "http://www.w3.org/Graphics/SVG/1.1/DTD/svg11.dtd">
<svg version="1.1" id="Layer_1" xmlns="http://www.w3.org/2000/svg" xmlns:xlink="http://www.w3.org/1999/xlink" x="0px" y="0px"
	 width="177px" height="266px" viewBox="0 0 177 266" enable-background="new 0 0 177 266" xml:space="preserve">
<polygon fill="#8A211B" points="40.333,84.083 40.333,0 0,0 0,191 41,191 41,103.667 84.333,191 129.333,191 83.666,92.333 127,0 
	79.666,0 "/>
<path fill="#FFFFFF" d="M10.051,209.965"/>
<g>
	<path fill="#FFFFFF" d="M8.931,210.239c0,0.292-0.118,0.544-0.354,0.756c-0.236,0.211-0.5,0.317-0.792,0.317
		c-0.292,0-0.674-0.278-1.146-0.835c-0.473-0.557-1.031-0.835-1.675-0.835c-0.604,0-1.119,0.216-1.547,0.648
		c-0.428,0.432-0.641,0.945-0.641,1.538v9.856c0,0.733-0.364,1.1-1.091,1.1c-0.728,0-1.092-0.367-1.092-1.1v-13.14
		c0-0.723,0.366-1.085,1.099-1.085c0.492,0,0.828,0.216,1.009,0.647c0.692-0.432,1.45-0.647,2.273-0.647
		c0.752,0,1.488,0.202,2.206,0.604c0.717,0.403,1.247,0.932,1.588,1.587C8.875,209.871,8.931,210.067,8.931,210.239z"/>
	<path fill="#FFFFFF" d="M24.828,218.387c0,0.17-0.05,0.361-0.151,0.572c-0.612,1.154-1.538,2.08-2.777,2.777
		c-1.239,0.698-2.526,1.046-3.861,1.046c-2.107,0-3.912-0.748-5.412-2.245c-1.5-1.497-2.25-3.305-2.25-5.425
		c0-2.109,0.75-3.913,2.25-5.41c1.5-1.497,3.304-2.245,5.412-2.245c0.753,0,1.541,0.141,2.364,0.422
		c0.933,0.322,1.846,0.834,2.74,1.538c1.114,0.875,1.671,1.698,1.671,2.472c0,0.392-0.181,0.688-0.542,0.889l-10.327,5.969
		c1.083,1.235,2.448,1.852,4.094,1.852c1.726,0,3.101-0.627,4.125-1.882c0.13-0.19,0.338-0.474,0.625-0.851s0.584-0.564,0.896-0.564
		c0.301,0,0.567,0.105,0.798,0.316C24.712,217.83,24.828,218.086,24.828,218.387z M22.13,211.502
		c-1.095-1.241-2.462-1.862-4.1-1.862c-1.507,0-2.796,0.538-3.867,1.613c-1.07,1.076-1.605,2.362-1.605,3.86
		c0,0.603,0.095,1.186,0.284,1.749L22.13,211.502z"/>
	<path fill="#FFFFFF" d="M35.907,217.86c0,1.354-0.484,2.514-1.453,3.477c-0.969,0.963-2.125,1.445-3.47,1.445
		c-1.014,0-1.95-0.293-2.808-0.881c-0.858-0.587-1.458-1.347-1.799-2.28c-0.06-0.161-0.09-0.306-0.09-0.437
		c0-0.301,0.115-0.555,0.347-0.76s0.498-0.309,0.8-0.309c0.342,0,0.659,0.216,0.95,0.647c0.453,0.683,0.734,1.079,0.845,1.189
		c0.442,0.432,1.031,0.647,1.765,0.647c0.754,0,1.397-0.269,1.931-0.806c0.533-0.537,0.799-1.182,0.799-1.934
		c0-1.666-0.936-2.58-2.806-2.74c-1.127-0.09-2.037-0.462-2.731-1.116c-0.745-0.694-1.117-1.599-1.117-2.715
		c0-1.056,0.376-1.958,1.129-2.707c0.753-0.75,1.656-1.124,2.71-1.124c1.525,0,2.624,0.635,3.296,1.905
		c0.11,0.211,0.166,0.403,0.166,0.574c0,0.303-0.116,0.56-0.348,0.771c-0.231,0.211-0.498,0.317-0.8,0.317
		c-0.302,0-0.64-0.231-1.012-0.692c-0.373-0.462-0.811-0.693-1.313-0.693c-0.453,0-0.841,0.164-1.163,0.492
		c-0.322,0.328-0.483,0.713-0.483,1.157c0,0.988,0.573,1.538,1.72,1.648c1.458,0.141,2.63,0.623,3.516,1.445
		C35.434,215.266,35.907,216.425,35.907,217.86z"/>
	<path fill="#FFFFFF" d="M48.295,220.645c0,0.743-0.381,1.305-1.144,1.686c-0.602,0.301-1.315,0.452-2.138,0.452
		c-1.204,0-2.235-0.43-3.093-1.289c-0.858-0.859-1.287-1.891-1.287-3.097v-8.756H38.45c-0.732,0-1.099-0.366-1.099-1.099
		c0-0.723,0.366-1.084,1.099-1.084h2.183v-5.464c0-0.732,0.364-1.099,1.091-1.099s1.091,0.367,1.091,1.099v5.464h2.183
		c0.732,0,1.099,0.361,1.099,1.084c0,0.732-0.366,1.099-1.099,1.099h-2.183v8.758c0,0.603,0.214,1.121,0.642,1.553
		s0.943,0.648,1.547,0.648c0.493,0,0.966-0.181,1.419-0.542c0.453-0.361,0.785-0.542,0.996-0.542
		C48.004,219.516,48.295,219.893,48.295,220.645z"/>
	<path fill="#FFFFFF" d="M60.7,221.683c0,0.733-0.366,1.1-1.099,1.1c-0.733,0-1.094-0.366-1.084-1.099
		c-0.974,0.733-2.068,1.099-3.282,1.099c-1.505,0-2.795-0.534-3.869-1.603c-1.074-1.069-1.61-2.356-1.61-3.861
		s0.537-2.795,1.61-3.869c1.074-1.074,2.364-1.61,3.869-1.61c1.214,0,2.308,0.366,3.282,1.099c0-0.907-0.321-1.684-0.963-2.329
		c-0.643-0.646-1.415-0.968-2.318-0.968c-0.632,0-1.267,0.221-1.904,0.663c-0.638,0.442-1.031,0.662-1.182,0.662
		c-0.301,0-0.564-0.113-0.791-0.34c-0.226-0.227-0.339-0.492-0.339-0.794c0-0.242,0.115-0.499,0.346-0.771
		c0.894-1.068,2.183-1.603,3.869-1.603c1.505,0,2.792,0.535,3.861,1.605s1.603,2.358,1.603,3.865V221.683z M58.517,217.311
		c0-0.905-0.322-1.68-0.966-2.323c-0.644-0.644-1.418-0.966-2.324-0.966s-1.68,0.322-2.323,0.966
		c-0.644,0.644-0.966,1.418-0.966,2.323c0,0.905,0.322,1.68,0.966,2.324c0.644,0.644,1.418,0.966,2.323,0.966
		s1.68-0.322,2.324-0.966C58.195,218.991,58.517,218.216,58.517,217.311z"/>
	<path fill="#FFFFFF" d="M74.534,217.313c0,1.507-0.534,2.795-1.603,3.865s-2.356,1.604-3.861,1.604s-2.792-0.535-3.861-1.604
		s-1.603-2.358-1.603-3.865v-8.77c0-0.723,0.366-1.085,1.099-1.085c0.723,0,1.084,0.362,1.084,1.085v8.771
		c0,0.904,0.321,1.678,0.963,2.321c0.642,0.643,1.415,0.964,2.318,0.964s1.676-0.321,2.318-0.964
		c0.642-0.643,0.963-1.417,0.963-2.321v-8.771c0-0.723,0.366-1.085,1.099-1.085c0.723,0,1.084,0.362,1.084,1.085V217.313z"/>
	<path fill="#FFFFFF" d="M86.516,210.239c0,0.292-0.118,0.544-0.354,0.756c-0.236,0.211-0.5,0.317-0.792,0.317
		c-0.292,0-0.674-0.278-1.146-0.835c-0.473-0.557-1.031-0.835-1.675-0.835c-0.604,0-1.119,0.216-1.547,0.648
		c-0.428,0.432-0.641,0.945-0.641,1.538v9.856c0,0.733-0.364,1.1-1.091,1.1c-0.728,0-1.092-0.367-1.092-1.1v-13.14
		c0-0.723,0.366-1.085,1.099-1.085c0.492,0,0.828,0.216,1.009,0.647c0.692-0.432,1.45-0.647,2.273-0.647
		c0.752,0,1.488,0.202,2.206,0.604c0.717,0.403,1.247,0.932,1.588,1.587C86.461,209.871,86.516,210.067,86.516,210.239z"/>
	<path fill="#FFFFFF" d="M98.92,221.683c0,0.733-0.366,1.1-1.099,1.1c-0.733,0-1.094-0.366-1.084-1.099
		c-0.974,0.733-2.068,1.099-3.282,1.099c-1.505,0-2.795-0.534-3.869-1.603c-1.074-1.069-1.61-2.356-1.61-3.861
		s0.537-2.795,1.61-3.869c1.074-1.074,2.364-1.61,3.869-1.61c1.214,0,2.308,0.366,3.282,1.099c0-0.907-0.321-1.684-0.963-2.329
		c-0.643-0.646-1.415-0.968-2.318-0.968c-0.632,0-1.267,0.221-1.904,0.663c-0.638,0.442-1.031,0.662-1.182,0.662
		c-0.301,0-0.564-0.113-0.791-0.34c-0.226-0.227-0.339-0.492-0.339-0.794c0-0.242,0.115-0.499,0.346-0.771
		c0.894-1.068,2.183-1.603,3.869-1.603c1.505,0,2.792,0.535,3.861,1.605s1.603,2.358,1.603,3.865V221.683z M96.738,217.311
		c0-0.905-0.322-1.68-0.966-2.323c-0.644-0.644-1.418-0.966-2.324-0.966s-1.68,0.322-2.323,0.966
		c-0.644,0.644-0.966,1.418-0.966,2.323c0,0.905,0.322,1.68,0.966,2.324c0.644,0.644,1.418,0.966,2.323,0.966
		s1.68-0.322,2.324-0.966C96.416,218.991,96.738,218.216,96.738,217.311z"/>
	<path fill="#FFFFFF" d="M113.492,221.683c0,0.733-0.367,1.1-1.099,1.1c-0.723,0-1.084-0.367-1.084-1.1v-8.756
		c0-0.904-0.324-1.678-0.973-2.321c-0.648-0.643-1.42-0.965-2.316-0.965c-0.905,0-1.68,0.322-2.324,0.965
		c-0.644,0.643-0.965,1.417-0.965,2.321v8.756c0,0.733-0.364,1.1-1.091,1.1c-0.728,0-1.092-0.367-1.092-1.1v-13.14
		c0-0.723,0.366-1.085,1.099-1.085c0.732,0,1.099,0.366,1.099,1.099c0.963-0.733,2.057-1.099,3.282-1.099
		c1.495,0,2.779,0.535,3.854,1.605c1.074,1.07,1.611,2.358,1.611,3.865V221.683z"/>
	<path fill="#FFFFFF" d="M126.619,220.645c0,0.743-0.381,1.305-1.144,1.686c-0.602,0.301-1.315,0.452-2.138,0.452
		c-1.204,0-2.235-0.43-3.093-1.289c-0.858-0.859-1.287-1.891-1.287-3.097v-8.756h-2.183c-0.732,0-1.099-0.366-1.099-1.099
		c0-0.723,0.366-1.084,1.099-1.084h2.183v-5.464c0-0.732,0.364-1.099,1.091-1.099s1.091,0.367,1.091,1.099v5.464h2.183
		c0.732,0,1.099,0.361,1.099,1.084c0,0.732-0.366,1.099-1.099,1.099h-2.183v8.758c0,0.603,0.214,1.121,0.642,1.553
		s0.943,0.648,1.547,0.648c0.493,0,0.966-0.181,1.419-0.542c0.453-0.361,0.785-0.542,0.996-0.542
		C126.327,219.516,126.619,219.893,126.619,220.645z"/>
</g>
</svg>
