<?xml version="1.0" encoding="utf-8"?>
<!-- Generator: Adobe Illustrator 16.0.0, SVG Export Plug-In . SVG Version: 6.00 Build 0)  -->
<!DOCTYPE svg PUBLIC "-//W3C//DTD SVG 1.1//EN" "http://www.w3.org/Graphics/SVG/1.1/DTD/svg11.dtd">
<svg version="1.1" id="Layer_1" xmlns="http://www.w3.org/2000/svg" xmlns:xlink="http://www.w3.org/1999/xlink" x="0px" y="0px"
	 width="177px" height="266px" viewBox="0 0 177 266" enable-background="new 0 0 177 266" xml:space="preserve">
<rect fill="#231F20" width="177" height="266"/>
<polygon fill="#89211B" points="64.037,104.64 64.037,25.196 25.929,25.196 25.929,205.66 64.667,205.66 64.667,123.144 
	105.609,205.66 148.127,205.66 104.979,112.436 145.923,25.196 101.2,25.196 "/>
<path fill="#FFFFFF" d="M35.425,223.579"/>
<g>
	<path fill="#FFFFFF" d="M34.367,223.838c0,0.274-0.112,0.513-0.335,0.714c-0.223,0.199-0.473,0.299-0.749,0.299
		c-0.275,0-0.637-0.262-1.083-0.79c-0.447-0.525-0.975-0.787-1.583-0.787c-0.57,0-1.057,0.202-1.461,0.61
		c-0.404,0.41-0.606,0.894-0.606,1.454v9.312c0,0.694-0.344,1.039-1.031,1.039c-0.688,0-1.032-0.345-1.032-1.039v-12.413
		c0-0.686,0.346-1.026,1.039-1.026c0.464,0,0.782,0.205,0.953,0.612c0.654-0.407,1.37-0.612,2.147-0.612
		c0.711,0,1.406,0.189,2.084,0.572c0.678,0.38,1.178,0.88,1.5,1.498C34.314,223.49,34.367,223.675,34.367,223.838z"/>
	<path fill="#FFFFFF" d="M49.387,231.536c0,0.161-0.048,0.342-0.143,0.541c-0.578,1.091-1.453,1.966-2.624,2.624
		c-1.171,0.659-2.387,0.987-3.648,0.987c-1.991,0-3.696-0.707-5.113-2.12c-1.417-1.415-2.126-3.122-2.126-5.127
		c0-1.992,0.709-3.696,2.126-5.109c1.417-1.415,3.122-2.122,5.113-2.122c0.711,0,1.456,0.133,2.233,0.398
		c0.881,0.305,1.744,0.788,2.588,1.452c1.052,0.827,1.579,1.605,1.579,2.337c0,0.37-0.17,0.651-0.512,0.839l-9.757,5.642
		c1.024,1.166,2.313,1.749,3.869,1.749c1.631,0,2.93-0.592,3.897-1.778c0.123-0.179,0.32-0.446,0.59-0.803
		c0.271-0.356,0.552-0.533,0.847-0.533c0.284,0,0.536,0.1,0.754,0.299C49.277,231.011,49.387,231.252,49.387,231.536z
		 M46.838,225.031c-1.035-1.173-2.326-1.758-3.874-1.758c-1.424,0-2.642,0.507-3.653,1.523c-1.011,1.016-1.517,2.231-1.517,3.646
		c0,0.57,0.089,1.12,0.269,1.654L46.838,225.031z"/>
	<path fill="#FFFFFF" d="M59.854,231.038c0,1.281-0.458,2.375-1.373,3.285c-0.915,0.911-2.008,1.365-3.278,1.365
		c-0.958,0-1.842-0.276-2.653-0.832c-0.811-0.554-1.377-1.271-1.699-2.153c-0.057-0.151-0.085-0.29-0.085-0.414
		c0-0.284,0.109-0.523,0.328-0.718c0.219-0.193,0.47-0.291,0.755-0.291c0.323,0,0.623,0.205,0.898,0.61
		c0.428,0.646,0.693,1.021,0.798,1.124c0.418,0.408,0.974,0.612,1.667,0.612c0.712,0,1.32-0.254,1.824-0.762
		c0.503-0.506,0.755-1.116,0.755-1.827c0-1.574-0.884-2.438-2.651-2.589c-1.065-0.085-1.925-0.438-2.581-1.054
		c-0.704-0.655-1.055-1.512-1.055-2.565c0-0.998,0.356-1.851,1.067-2.558c0.711-0.708,1.565-1.062,2.561-1.062
		c1.441,0,2.479,0.6,3.114,1.799c0.104,0.201,0.157,0.382,0.157,0.543c0,0.286-0.11,0.529-0.329,0.729
		c-0.219,0.201-0.471,0.301-0.756,0.301c-0.286,0-0.604-0.218-0.956-0.655c-0.352-0.436-0.766-0.652-1.241-0.652
		c-0.428,0-0.794,0.154-1.099,0.463c-0.304,0.31-0.457,0.675-0.457,1.094c0,0.935,0.542,1.453,1.625,1.558
		c1.378,0.133,2.485,0.587,3.321,1.366C59.408,228.588,59.854,229.682,59.854,231.038z"/>
	<path fill="#FFFFFF" d="M71.56,233.67c0,0.701-0.36,1.232-1.081,1.593c-0.569,0.284-1.243,0.426-2.02,0.426
		c-1.138,0-2.112-0.405-2.922-1.216c-0.811-0.812-1.216-1.788-1.216-2.927v-8.272h-2.062c-0.692,0-1.038-0.348-1.038-1.039
		c0-0.684,0.346-1.024,1.038-1.024h2.062v-5.163c0-0.692,0.344-1.037,1.031-1.037s1.031,0.345,1.031,1.037v5.163h2.062
		c0.692,0,1.038,0.341,1.038,1.024c0,0.691-0.346,1.039-1.038,1.039h-2.062v8.274c0,0.57,0.202,1.059,0.606,1.467
		s0.891,0.612,1.462,0.612c0.466,0,0.913-0.171,1.341-0.513c0.428-0.341,0.741-0.511,0.941-0.511
		C71.284,232.604,71.56,232.959,71.56,233.67z"/>
	<path fill="#FFFFFF" d="M83.28,234.649c0,0.694-0.346,1.039-1.038,1.039c-0.692,0-1.034-0.345-1.024-1.037
		c-0.92,0.692-1.954,1.037-3.101,1.037c-1.422,0-2.641-0.504-3.656-1.513c-1.015-1.012-1.521-2.228-1.521-3.648
		c0-1.423,0.507-2.641,1.521-3.656c1.015-1.015,2.233-1.522,3.656-1.522c1.146,0,2.181,0.348,3.101,1.039
		c0-0.857-0.304-1.591-0.91-2.201c-0.607-0.609-1.337-0.913-2.19-0.913c-0.598,0-1.197,0.208-1.799,0.625
		c-0.603,0.417-0.975,0.626-1.117,0.626c-0.285,0-0.533-0.107-0.747-0.321c-0.213-0.214-0.32-0.465-0.32-0.751
		c0-0.228,0.109-0.471,0.327-0.728c0.844-1.009,2.062-1.515,3.656-1.515c1.422,0,2.638,0.506,3.648,1.517
		c1.01,1.012,1.515,2.228,1.515,3.652V234.649z M81.218,230.52c0-0.856-0.305-1.587-0.913-2.195
		c-0.608-0.609-1.34-0.912-2.196-0.912c-0.855,0-1.587,0.303-2.195,0.912c-0.608,0.608-0.913,1.339-0.913,2.195
		c0,0.854,0.304,1.587,0.913,2.194c0.608,0.609,1.34,0.913,2.195,0.913c0.855,0,1.587-0.304,2.196-0.913
		C80.913,232.106,81.218,231.374,81.218,230.52z"/>
	<path fill="#FFFFFF" d="M96.352,230.521c0,1.423-0.506,2.641-1.516,3.652c-1.009,1.011-2.226,1.515-3.648,1.515
		s-2.639-0.504-3.648-1.515c-1.009-1.012-1.515-2.229-1.515-3.652v-8.285c0-0.686,0.347-1.026,1.039-1.026
		c0.683,0,1.024,0.341,1.024,1.026v8.287c0,0.854,0.303,1.585,0.91,2.192c0.607,0.607,1.337,0.911,2.19,0.911
		s1.584-0.304,2.19-0.911c0.607-0.607,0.91-1.338,0.91-2.192v-8.287c0-0.686,0.347-1.026,1.039-1.026
		c0.683,0,1.024,0.341,1.024,1.026V230.521z"/>
	<path fill="#FFFFFF" d="M107.673,223.838c0,0.274-0.113,0.513-0.336,0.714c-0.224,0.199-0.473,0.299-0.748,0.299
		c-0.276,0-0.637-0.262-1.084-0.79c-0.447-0.525-0.974-0.787-1.582-0.787c-0.57,0-1.058,0.202-1.462,0.61
		c-0.404,0.41-0.605,0.894-0.605,1.454v9.312c0,0.694-0.345,1.039-1.031,1.039c-0.688,0-1.031-0.345-1.031-1.039v-12.413
		c0-0.686,0.345-1.026,1.038-1.026c0.464,0,0.782,0.205,0.953,0.612c0.654-0.407,1.369-0.612,2.147-0.612
		c0.711,0,1.405,0.189,2.084,0.572c0.677,0.38,1.177,0.88,1.5,1.498C107.62,223.49,107.673,223.675,107.673,223.838z"/>
	<path fill="#FFFFFF" d="M119.393,234.649c0,0.694-0.347,1.039-1.039,1.039c-0.691,0-1.033-0.345-1.024-1.037
		c-0.919,0.692-1.953,1.037-3.1,1.037c-1.423,0-2.641-0.504-3.656-1.513c-1.015-1.012-1.521-2.228-1.521-3.648
		c0-1.423,0.507-2.641,1.521-3.656c1.016-1.015,2.233-1.522,3.656-1.522c1.146,0,2.181,0.348,3.1,1.039
		c0-0.857-0.302-1.591-0.909-2.201c-0.607-0.609-1.337-0.913-2.19-0.913c-0.599,0-1.198,0.208-1.8,0.625
		c-0.603,0.417-0.974,0.626-1.116,0.626c-0.284,0-0.533-0.107-0.747-0.321c-0.213-0.214-0.319-0.465-0.319-0.751
		c0-0.228,0.108-0.471,0.326-0.728c0.845-1.009,2.063-1.515,3.656-1.515c1.423,0,2.639,0.506,3.648,1.517
		c1.009,1.012,1.515,2.228,1.515,3.652V234.649z M117.329,230.52c0-0.856-0.304-1.587-0.911-2.195
		c-0.609-0.609-1.341-0.912-2.196-0.912s-1.587,0.303-2.195,0.912c-0.607,0.608-0.912,1.339-0.912,2.195
		c0,0.854,0.305,1.587,0.912,2.194c0.608,0.609,1.34,0.913,2.195,0.913s1.587-0.304,2.196-0.913
		C117.025,232.106,117.329,231.374,117.329,230.52z"/>
	<path fill="#FFFFFF" d="M133.16,234.649c0,0.694-0.346,1.039-1.038,1.039c-0.683,0-1.024-0.345-1.024-1.039v-8.272
		c0-0.854-0.306-1.585-0.92-2.192c-0.612-0.609-1.342-0.911-2.188-0.911c-0.856,0-1.587,0.302-2.196,0.911
		c-0.607,0.607-0.911,1.338-0.911,2.192v8.272c0,0.694-0.345,1.039-1.031,1.039c-0.688,0-1.032-0.345-1.032-1.039v-12.413
		c0-0.686,0.347-1.026,1.039-1.026s1.038,0.347,1.038,1.039c0.911-0.692,1.944-1.039,3.102-1.039c1.411,0,2.626,0.506,3.641,1.517
		c1.014,1.012,1.521,2.228,1.521,3.652V234.649z"/>
	<path fill="#FFFFFF" d="M145.562,233.67c0,0.701-0.36,1.232-1.081,1.593c-0.569,0.284-1.243,0.426-2.02,0.426
		c-1.138,0-2.112-0.405-2.923-1.216c-0.811-0.812-1.217-1.788-1.217-2.927v-8.272h-2.062c-0.692,0-1.038-0.348-1.038-1.039
		c0-0.684,0.346-1.024,1.038-1.024h2.062v-5.163c0-0.692,0.345-1.037,1.032-1.037s1.031,0.345,1.031,1.037v5.163h2.062
		c0.691,0,1.038,0.341,1.038,1.024c0,0.691-0.347,1.039-1.038,1.039h-2.062v8.274c0,0.57,0.201,1.059,0.605,1.467
		s0.892,0.612,1.462,0.612c0.467,0,0.913-0.171,1.341-0.513c0.429-0.341,0.742-0.511,0.941-0.511
		C145.287,232.604,145.562,232.959,145.562,233.67z"/>
</g>
</svg>
