<?xml version="1.0" encoding="utf-8"?>
<!-- Generator: Adobe Illustrator 16.0.0, SVG Export Plug-In . SVG Version: 6.00 Build 0)  -->
<!DOCTYPE svg PUBLIC "-//W3C//DTD SVG 1.1//EN" "http://www.w3.org/Graphics/SVG/1.1/DTD/svg11.dtd">
<svg version="1.1" id="Layer_1" xmlns="http://www.w3.org/2000/svg" xmlns:xlink="http://www.w3.org/1999/xlink" x="0px" y="0px"
	 width="177px" height="266px" viewBox="0 0 177 266" enable-background="new 0 0 177 266" xml:space="preserve">
<g>
	<rect width="177" height="266"/>
	<polygon fill="#8A211B" points="64.275,106.166 64.275,22.083 23.942,22.083 23.942,213.083 64.942,213.083 64.942,125.75 
		108.275,213.083 153.275,213.083 107.608,114.417 150.942,22.083 103.608,22.083 	"/>
	<path fill="#FFFFFF" d="M33.993,232.048"/>
	<g>
		<path fill="#FFFFFF" d="M31.993,229.048c0,0,1.374-0.142,1.445,0.667c0,0,0.024,0.119,0.071,0.524l-0.143,0.523
			c0,0-0.255,0.347-1.384,0.565c-0.62,0.12-4.149,1.023-4.597,1.474c-0.445,0.452-0.668,0.987-0.668,1.605v10.294
			c0,0.766-0.381,1.149-1.141,1.149s-1.141-0.383-1.141-1.149v-13.722c0-0.755,0.383-1.133,1.148-1.133
			c0.514,0,0.864,0.225,1.053,0.676C27.363,230.071,31.134,229.048,31.993,229.048"/>
		<path fill="#FFFFFF" d="M49.75,241.26c0,0.178-0.053,0.377-0.157,0.597c-0.639,1.206-1.606,2.172-2.9,2.901
			c-1.294,0.728-2.639,1.093-4.032,1.093c-2.201,0-4.086-0.782-5.652-2.345c-1.567-1.563-2.35-3.451-2.35-5.665
			c0-2.203,0.782-4.086,2.35-5.65c1.566-1.563,3.451-2.345,5.652-2.345c0.785,0,1.609,0.146,2.468,0.44
			c0.975,0.336,1.929,0.872,2.861,1.606c1.163,0.914,1.745,1.774,1.745,2.582c0,0.41-0.188,0.719-0.565,0.929l-10.786,6.234
			c1.133,1.29,2.559,1.934,4.277,1.934c1.803,0,3.238-0.655,4.308-1.965c0.136-0.199,0.354-0.495,0.652-0.888
			c0.299-0.393,0.61-0.589,0.936-0.589c0.314,0,0.592,0.11,0.833,0.33S49.75,240.945,49.75,241.26z M46.934,234.069
			c-1.145-1.295-2.572-1.944-4.282-1.944c-1.574,0-2.921,0.562-4.038,1.685c-1.117,1.123-1.676,2.467-1.676,4.032
			c0,0.63,0.098,1.239,0.297,1.826L46.934,234.069z"/>
		<path fill="#FFFFFF" d="M61.322,240.709c0,1.415-0.507,2.625-1.518,3.631c-1.012,1.006-2.22,1.51-3.623,1.51
			c-1.06,0-2.037-0.307-2.934-0.92c-0.896-0.613-1.521-1.407-1.878-2.382c-0.063-0.167-0.095-0.319-0.095-0.456
			c0-0.314,0.121-0.579,0.363-0.794c0.241-0.215,0.52-0.323,0.834-0.323c0.357,0,0.688,0.226,0.992,0.676
			c0.473,0.713,0.768,1.127,0.883,1.243c0.462,0.451,1.076,0.676,1.844,0.676c0.787,0,1.459-0.28,2.016-0.841
			c0.557-0.561,0.835-1.234,0.835-2.021c0-1.74-0.977-2.694-2.931-2.862c-1.177-0.094-2.127-0.482-2.852-1.166
			c-0.777-0.724-1.166-1.669-1.166-2.835c0-1.102,0.393-2.045,1.179-2.828c0.786-0.782,1.729-1.173,2.829-1.173
			c1.594,0,2.741,0.663,3.443,1.989c0.115,0.221,0.173,0.421,0.173,0.6c0,0.316-0.121,0.584-0.362,0.806
			c-0.242,0.221-0.52,0.331-0.836,0.331c-0.314,0-0.668-0.241-1.057-0.723s-0.846-0.724-1.371-0.724
			c-0.473,0-0.879,0.171-1.215,0.514c-0.336,0.342-0.504,0.744-0.504,1.208c0,1.032,0.598,1.605,1.796,1.722
			c1.523,0.147,2.747,0.65,3.672,1.51C60.828,238,61.322,239.211,61.322,240.709z"/>
		<path fill="#FFFFFF" d="M74.261,243.618c0,0.776-0.399,1.363-1.195,1.761c-0.628,0.314-1.372,0.472-2.232,0.472
			c-1.258,0-2.335-0.449-3.23-1.346c-0.896-0.897-1.345-1.975-1.345-3.234v-9.145h-2.279c-0.766,0-1.147-0.382-1.147-1.147
			c0-0.755,0.382-1.132,1.147-1.132h2.279v-5.707c0-0.765,0.38-1.147,1.141-1.147c0.76,0,1.14,0.382,1.14,1.147v5.707h2.279
			c0.765,0,1.147,0.377,1.147,1.132c0,0.765-0.383,1.147-1.147,1.147h-2.279v9.147c0,0.63,0.224,1.169,0.67,1.621
			c0.446,0.451,0.985,0.677,1.616,0.677c0.515,0,1.008-0.189,1.481-0.566c0.473-0.377,0.82-0.566,1.041-0.566
			C73.955,242.438,74.261,242.832,74.261,243.618z"/>
		<path fill="#FFFFFF" d="M87.215,244.701c0,0.766-0.383,1.149-1.147,1.149c-0.766,0-1.143-0.382-1.132-1.148
			c-1.017,0.766-2.16,1.148-3.428,1.148c-1.572,0-2.919-0.558-4.041-1.674c-1.121-1.116-1.682-2.461-1.682-4.033
			c0-1.572,0.561-2.919,1.682-4.041c1.122-1.122,2.469-1.682,4.041-1.682c1.268,0,2.411,0.382,3.428,1.147
			c0-0.948-0.336-1.758-1.006-2.433c-0.672-0.674-1.479-1.011-2.422-1.011c-0.66,0-1.323,0.23-1.988,0.692
			c-0.666,0.461-1.077,0.692-1.234,0.692c-0.314,0-0.59-0.119-0.826-0.355c-0.235-0.236-0.354-0.513-0.354-0.829
			c0-0.252,0.121-0.521,0.361-0.805c0.934-1.116,2.279-1.673,4.041-1.673c1.572,0,2.916,0.559,4.033,1.676
			c1.115,1.117,1.674,2.462,1.674,4.036V244.701z M84.936,240.135c0-0.945-0.336-1.753-1.01-2.427
			c-0.672-0.672-1.48-1.008-2.426-1.008s-1.755,0.336-2.428,1.008c-0.672,0.673-1.008,1.481-1.008,2.427
			c0,0.946,0.336,1.755,1.008,2.427c0.673,0.672,1.482,1.008,2.428,1.008s1.754-0.336,2.426-1.008
			C84.6,241.89,84.936,241.081,84.936,240.135z"/>
		<path fill="#FFFFFF" d="M101.663,240.137c0,1.575-0.559,2.92-1.675,4.038c-1.116,1.117-2.461,1.676-4.032,1.676
			c-1.572,0-2.917-0.559-4.033-1.676c-1.116-1.118-1.674-2.463-1.674-4.038v-9.158c0-0.755,0.382-1.133,1.147-1.133
			c0.755,0,1.132,0.378,1.132,1.133v9.161c0,0.944,0.335,1.752,1.007,2.424c0.67,0.671,1.477,1.007,2.421,1.007
			c0.942,0,1.749-0.336,2.421-1.007c0.67-0.672,1.006-1.479,1.006-2.424v-9.161c0-0.755,0.383-1.133,1.148-1.133
			c0.754,0,1.132,0.378,1.132,1.133V240.137z"/>
		<path fill="#FFFFFF" d="M127.132,244.701c0,0.766-0.384,1.149-1.147,1.149c-0.766,0-1.143-0.382-1.133-1.148
			c-1.016,0.766-2.159,1.148-3.427,1.148c-1.572,0-2.919-0.558-4.04-1.674c-1.122-1.116-1.683-2.461-1.683-4.033
			c0-1.572,0.561-2.919,1.683-4.041c1.121-1.122,2.468-1.682,4.04-1.682c1.268,0,2.411,0.382,3.427,1.147
			c0-0.948-0.335-1.758-1.006-2.433c-0.67-0.674-1.478-1.011-2.421-1.011c-0.661,0-1.323,0.23-1.989,0.692
			c-0.665,0.461-1.076,0.692-1.234,0.692c-0.314,0-0.59-0.119-0.825-0.355c-0.235-0.236-0.353-0.513-0.353-0.829
			c0-0.252,0.119-0.521,0.361-0.805c0.932-1.116,2.279-1.673,4.04-1.673c1.571,0,2.917,0.559,4.032,1.676
			c1.117,1.117,1.675,2.462,1.675,4.036V244.701z M124.852,240.135c0-0.945-0.336-1.753-1.009-2.427
			c-0.672-0.672-1.48-1.008-2.426-1.008c-0.946,0-1.755,0.336-2.427,1.008c-0.673,0.673-1.009,1.481-1.009,2.427
			c0,0.946,0.336,1.755,1.009,2.427c0.672,0.672,1.48,1.008,2.427,1.008c0.945,0,1.754-0.336,2.426-1.008
			C124.516,241.89,124.852,241.081,124.852,240.135z"/>
		<path fill="#FFFFFF" d="M142.351,244.701c0,0.766-0.384,1.149-1.148,1.149c-0.754,0-1.132-0.383-1.132-1.149v-9.145
			c0-0.944-0.34-1.752-1.017-2.423c-0.678-0.672-1.484-1.008-2.419-1.008c-0.945,0-1.754,0.336-2.427,1.008
			c-0.672,0.671-1.008,1.479-1.008,2.423v9.145c0,0.766-0.38,1.149-1.141,1.149c-0.76,0-1.14-0.383-1.14-1.149v-13.722
			c0-0.755,0.383-1.133,1.148-1.133c0.765,0,1.147,0.382,1.147,1.147c1.006-0.765,2.148-1.147,3.428-1.147
			c1.561,0,2.902,0.559,4.024,1.676c1.121,1.117,1.683,2.462,1.683,4.036V244.701z"/>
		<path fill="#FFFFFF" d="M156.059,243.618c0,0.776-0.398,1.363-1.194,1.761c-0.629,0.314-1.373,0.472-2.232,0.472
			c-1.258,0-2.335-0.449-3.23-1.346c-0.896-0.897-1.345-1.975-1.345-3.234v-9.145h-2.279c-0.766,0-1.147-0.382-1.147-1.147
			c0-0.755,0.382-1.132,1.147-1.132h2.279v-5.707c0-0.765,0.38-1.147,1.14-1.147s1.141,0.382,1.141,1.147v5.707h2.279
			c0.765,0,1.147,0.377,1.147,1.132c0,0.765-0.383,1.147-1.147,1.147h-2.279v9.147c0,0.63,0.223,1.169,0.67,1.621
			c0.446,0.451,0.985,0.677,1.616,0.677c0.514,0,1.008-0.189,1.48-0.566c0.474-0.377,0.82-0.566,1.042-0.566
			C155.754,242.438,156.059,242.832,156.059,243.618z"/>
		<path fill="#FFFFFF" d="M101.655,234.407v10.294c0,0.766-0.38,1.149-1.14,1.149s-1.141-0.383-1.141-1.149v-13.722
			c0-0.755,0.383-1.133,1.148-1.133c0.514,0,0.864,0.225,1.053,0.676"/>
		<path fill="#FFFFFF" d="M114.186,229.855c0,0,1.373-0.142,1.445,0.667c0,0,0.023,0.119,0.071,0.523l-0.144,0.523
			c0,0-0.254,0.347-1.383,0.565c-0.62,0.12-4.149,1.023-4.597,1.474c-0.446,0.451-0.669,0.987-0.669,1.605v10.294
			c0,0.766-0.381,1.149-1.141,1.149s-1.14-0.383-1.14-1.149v-13.722c0-0.756,0.383-1.134,1.148-1.134
			c0.513,0,0.864,0.226,1.053,0.676C109.555,230.878,113.326,229.855,114.186,229.855"/>
	</g>
</g>
</svg>
